<?xml version="1.0" encoding="UTF-8" standalone="no"?>
<!-- Generator: Adobe Illustrator 23.0.3, SVG Export Plug-In . SVG Version: 6.00 Build 0)  -->

<svg
   version="1.1"
   id="Layer_1"
   x="0px"
   y="0px"
   viewBox="0 0 500 500"
   style="enable-background:new 0 0 500 500;"
   xml:space="preserve"
   sodipodi:docname="logo.svg"
   inkscape:version="1.1.2 (0a00cf5339, 2022-02-04)"
   xmlns:inkscape="http://www.inkscape.org/namespaces/inkscape"
   xmlns:sodipodi="http://sodipodi.sourceforge.net/DTD/sodipodi-0.dtd"
   xmlns:xlink="http://www.w3.org/1999/xlink"
   xmlns="http://www.w3.org/2000/svg"
   xmlns:svg="http://www.w3.org/2000/svg"><defs
   id="defs150" /><sodipodi:namedview
   id="namedview148"
   pagecolor="#505050"
   bordercolor="#eeeeee"
   borderopacity="1"
   inkscape:pageshadow="0"
   inkscape:pageopacity="0"
   inkscape:pagecheckerboard="0"
   showgrid="false"
   inkscape:zoom="1.614"
   inkscape:cx="164.49814"
   inkscape:cy="250"
   inkscape:window-width="1631"
   inkscape:window-height="935"
   inkscape:window-x="276"
   inkscape:window-y="234"
   inkscape:window-maximized="0"
   inkscape:current-layer="Layer_1" />
<g
   id="g145"
   transform="matrix(1.000001,0,0,1.0000012,-1.1197202e-4,-8.9440645e-5)">
	<path
   style="fill:#ffffff"
   d="m 116.8525,421.9722 c -5.7041,0 -10.3442,-4.3127 -10.3442,-9.6129 V 88.183 c 0,-5.3002 4.6401,-9.6117 10.3442,-9.6117 H 320.858 c 3.0347,0 9.3959,0.5498 11.7506,2.6302 l 0.3545,0.3442 58.905,63.2912 c 2.3101,2.491 2.9202,8.4928 2.9202,11.3184 v 256.2039 c 0,5.3002 -4.6407,9.6129 -10.3436,9.6129 H 116.8525 Z"
   id="path9" />
	<g
   id="g17">
		<g
   id="g15">
			<g
   id="g13">
				<path
   style="fill:#767676"
   d="M 384.4445,423.2066 H 116.852 c -6.3839,0 -11.5786,-4.8658 -11.5786,-10.8474 V 88.1831 c 0,-5.9804 5.1947,-10.8461 11.5786,-10.8461 h 204.0062 c 0.377,0 9.2786,0.0329 12.568,2.9389 l 0.3947,0.3833 58.9508,63.337 c 3.2135,3.4652 3.2514,11.7924 3.2514,12.1593 v 256.2036 c 0,5.9817 -5.1947,10.8475 -11.5786,10.8475 z M 116.5079,411.9189 c 0.0848,0.0278 0.1999,0.0531 0.3441,0.0531 h 267.5925 c 0.1442,0 0.2581,-0.0253 0.3441,-0.0531 V 156.1556 c -0.008,-0.9033 -0.3593,-3.7347 -0.7034,-5.0037 L 326.4325,89.2103 c -1.4651,-0.3176 -4.4533,-0.6389 -5.5742,-0.6389 H 116.852 c -0.143,0 -0.2594,0.024 -0.3441,0.0531 z M 383.9612,150.7699 Z M 327.0321,89.371 v 0.0013 z"
   id="path11" />
			</g>
		</g>
	</g>
	<g
   id="g49">
		<g
   id="g45">
			<path
   style="fill:#5b7fc0"
   d="m 189.0874,210.1754 0.001,-0.001 c 7.7751,0.001 15.0295,4.1862 18.932,10.9234 1.9177,3.3159 2.9305,7.1011 2.9293,10.9378 0,5.8394 -2.2733,11.3304 -6.4032,15.4604 -4.1288,4.1288 -9.6186,6.4032 -15.458,6.4032 -5.8394,0 -11.328,-2.2733 -15.458,-6.4032 -4.13,-4.1299 -6.4032,-9.6186 -6.4056,-15.4628 0.001,-6.025 2.454,-11.4897 6.4116,-15.4473 3.9586,-3.9587 9.4234,-6.4115 15.4507,-6.4103 z m 7.993,21.8576 c 0.001,-1.4042 -0.3687,-2.7868 -1.063,-3.9887 -1.4293,-2.4684 -4.0833,-3.9995 -6.9299,-4.0019 -4.4077,0.002 -7.993,3.5877 -7.993,7.993 0,2.1356 0.832,4.1431 2.3427,5.6539 1.5083,1.5083 3.5159,2.3403 5.6503,2.3415 2.1356,0 4.1443,-0.8308 5.6539,-2.3403 1.5096,-1.5095 2.3402,-3.5183 2.339,-5.6575 z"
   id="path19" />
			<path
   style="opacity:0.3;fill:#ffffff"
   d="m 189.0898,210.176 c 7.7763,0 15.0283,4.1826 18.926,10.9151 1.9201,3.3136 2.9377,7.0988 2.9353,10.9462 0.002,12.0643 -9.8065,21.8636 -21.8613,21.8613 -12.0547,0.002 -21.8636,-9.8066 -21.8612,-21.8613 0,-6.0285 2.4516,-11.4921 6.4116,-15.452 3.9575,-3.9577 9.421,-6.4093 15.4496,-6.4093 z m 7.9941,21.8612 c 0,-1.4078 -0.3711,-2.7892 -1.0702,-3.9959 -1.4269,-2.466 -4.0797,-3.9983 -6.924,-3.9983 -4.4005,-0.005 -7.9918,3.5817 -7.9942,7.9942 0.002,4.4077 3.5865,7.9918 7.9942,7.9942 2.2027,0 4.2018,-0.8978 5.6479,-2.3439 1.4485,-1.4485 2.3463,-3.4476 2.3463,-5.6503 z"
   id="path21" />
			<g
   id="g33">
				<defs
   id="defs24">
					<path
   id="SVGID_1_"
   d="m 194.7376,237.6875 c -1.4461,1.4461 -3.4452,2.3439 -5.6479,2.3439 -4.4077,-0.002 -7.9918,-3.5865 -7.9942,-7.9942 0.002,-4.4125 3.5937,-7.999 7.9942,-7.9942 2.8443,0 5.497,1.5323 6.924,3.9983 0.6991,1.2067 1.0702,2.5881 1.0702,3.9959 0,2.2027 -0.8978,4.2018 -2.3463,5.6503 z" />
				</defs>
				<clipPath
   id="SVGID_2_">
					<use
   xlink:href="#SVGID_1_"
   style="overflow:visible"
   id="use26"
   x="0"
   y="0"
   width="100%"
   height="100%" />
				</clipPath>
				<path
   style="fill:#ffffff"
   d="m 190.0704,225.0237 c -4.4005,-0.005 -7.9918,3.5817 -7.9942,7.9942 0.001,1.9546 0.7088,3.7452 1.8782,5.1354 -1.7447,-1.4674 -2.8575,-3.663 -2.8588,-6.116 0.002,-4.4125 3.5936,-7.999 7.9942,-7.9942 2.3802,-1e-4 4.616,1.0833 6.1218,2.8788 -1.4231,-1.1972 -3.2342,-1.8982 -5.1412,-1.8982 z"
   clip-path="url(#SVGID_2_)"
   id="path29" />
				<path
   style="opacity:0.13;fill:#020202"
   d="m 190.0704,225.0237 c -4.4005,-0.005 -7.9918,3.5817 -7.9942,7.9942 0.001,1.9546 0.7088,3.7452 1.8782,5.1354 -1.7447,-1.4674 -2.8575,-3.663 -2.8588,-6.116 0.002,-4.4125 3.5936,-7.999 7.9942,-7.9942 2.3802,-1e-4 4.616,1.0833 6.1218,2.8788 -1.4231,-1.1972 -3.2342,-1.8982 -5.1412,-1.8982 z"
   clip-path="url(#SVGID_2_)"
   id="path31" />
			</g>
			<g
   id="g43">
				<defs
   id="defs36">
					<path
   id="SVGID_3_"
   d="m 189.0898,210.176 c 7.7763,0 15.0283,4.1826 18.926,10.9151 1.9201,3.3136 2.9377,7.0988 2.9353,10.9462 0.002,12.0643 -9.8065,21.8636 -21.8613,21.8613 -12.0547,0.002 -21.8636,-9.8066 -21.8612,-21.8613 0,-6.0285 2.4516,-11.4921 6.4116,-15.452 3.9575,-3.9577 9.421,-6.4093 15.4496,-6.4093 z m 7.9941,21.8612 c 0,-1.4078 -0.3711,-2.7892 -1.0702,-3.9959 -1.4269,-2.466 -4.0797,-3.9983 -6.924,-3.9983 -4.4005,-0.005 -7.9918,3.5817 -7.9942,7.9942 0.002,4.4077 3.5865,7.9918 7.9942,7.9942 2.2027,0 4.2018,-0.8978 5.6479,-2.3439 1.4485,-1.4485 2.3463,-3.4476 2.3463,-5.6503 z" />
				</defs>
				<clipPath
   id="SVGID_4_">
					<use
   xlink:href="#SVGID_3_"
   style="overflow:visible"
   id="use38"
   x="0"
   y="0"
   width="100%"
   height="100%" />
				</clipPath>
				<path
   style="fill:#5b7fc0"
   d="m 172.6595,215.6045 c -3.96,3.96 -6.4116,9.4235 -6.4116,15.452 -0.002,12.0547 9.8066,21.8636 21.8613,21.8612 12.0547,0.002 21.8636,-9.797 21.8613,-21.8612 0.002,-3.8475 -1.0151,-7.6326 -2.9353,-10.9462 -3.8977,-6.7324 -11.1497,-10.9151 -18.926,-10.9151 -6.0286,1e-4 -11.4921,2.4518 -15.4497,6.4093 z"
   clip-path="url(#SVGID_4_)"
   id="path41" />
			</g>
		</g>
		<rect
   x="198.8952"
   y="225.10429"
   style="fill:#5b7fc0"
   width="122.6266"
   height="13.8671"
   id="rect47" />
	</g>
	<g
   id="g79">
		<path
   style="fill:#d95140"
   d="m 189.0874,155.7611 0.001,-0.001 c 7.7751,0.001 15.0295,4.1862 18.932,10.9234 1.9177,3.3159 2.9305,7.1011 2.9293,10.9378 0,5.8394 -2.2733,11.3304 -6.4032,15.4604 -4.1288,4.1288 -9.6186,6.4032 -15.458,6.4032 -5.8394,0 -11.328,-2.2733 -15.458,-6.4032 -4.13,-4.1299 -6.4032,-9.6186 -6.4056,-15.4628 0.001,-6.0249 2.454,-11.4897 6.4116,-15.4473 3.9586,-3.9586 9.4234,-6.4115 15.4507,-6.4103 z m 7.993,21.8577 c 0.001,-1.4042 -0.3687,-2.7868 -1.063,-3.9887 -1.4293,-2.4684 -4.0833,-3.9995 -6.9299,-4.0019 -4.4077,0.002 -7.993,3.5877 -7.993,7.993 0,2.1356 0.832,4.1431 2.3427,5.6539 1.5083,1.5083 3.5159,2.3403 5.6503,2.3415 2.1356,0 4.1443,-0.8308 5.6539,-2.3403 1.5094,-1.5096 2.3402,-3.5183 2.339,-5.6575 z"
   id="path51" />
		<path
   style="opacity:0.3;fill:#ffffff"
   d="m 189.0898,155.7617 c 7.7763,0 15.0283,4.1826 18.926,10.9151 1.9201,3.3135 2.9377,7.0987 2.9353,10.9462 0.002,12.0643 -9.8065,21.8636 -21.8613,21.8613 -12.0547,0.002 -21.8636,-9.8066 -21.8612,-21.8613 0,-6.0285 2.4516,-11.4921 6.4116,-15.452 3.9575,-3.9576 9.421,-6.4093 15.4496,-6.4093 z m 7.9941,21.8613 c 0,-1.4078 -0.3711,-2.7892 -1.0702,-3.9959 -1.4269,-2.466 -4.0797,-3.9983 -6.924,-3.9983 -4.4005,-0.005 -7.9918,3.5817 -7.9942,7.9942 0.002,4.4077 3.5865,7.9918 7.9942,7.9942 2.2027,0 4.2018,-0.8978 5.6479,-2.3439 1.4485,-1.4485 2.3463,-3.4477 2.3463,-5.6503 z"
   id="path53" />
		<g
   id="g65">
			<defs
   id="defs56">
				<path
   id="SVGID_5_"
   d="m 194.7376,183.2733 c -1.4461,1.4461 -3.4452,2.3439 -5.6479,2.3439 -4.4077,-0.002 -7.9918,-3.5865 -7.9942,-7.9942 0.002,-4.4125 3.5937,-7.9989 7.9942,-7.9942 2.8443,0 5.497,1.5323 6.924,3.9983 0.6991,1.2067 1.0702,2.5881 1.0702,3.9959 0,2.2026 -0.8978,4.2018 -2.3463,5.6503 z" />
			</defs>
			<clipPath
   id="SVGID_6_">
				<use
   xlink:href="#SVGID_5_"
   style="overflow:visible"
   id="use58"
   x="0"
   y="0"
   width="100%"
   height="100%" />
			</clipPath>
			<path
   style="fill:#ffffff"
   d="m 190.0704,170.6095 c -4.4005,-0.005 -7.9918,3.5817 -7.9942,7.9942 0.001,1.9546 0.7088,3.7452 1.8782,5.1354 -1.7447,-1.4674 -2.8575,-3.663 -2.8588,-6.116 0.002,-4.4125 3.5936,-7.999 7.9942,-7.9942 2.3802,-10e-5 4.616,1.0833 6.1218,2.8788 -1.4231,-1.1973 -3.2342,-1.8982 -5.1412,-1.8982 z"
   clip-path="url(#SVGID_6_)"
   id="path61" />
			<path
   style="opacity:0.13;fill:#020202"
   d="m 190.0704,170.6095 c -4.4005,-0.005 -7.9918,3.5817 -7.9942,7.9942 0.001,1.9546 0.7088,3.7452 1.8782,5.1354 -1.7447,-1.4674 -2.8575,-3.663 -2.8588,-6.116 0.002,-4.4125 3.5936,-7.999 7.9942,-7.9942 2.3802,-10e-5 4.616,1.0833 6.1218,2.8788 -1.4231,-1.1973 -3.2342,-1.8982 -5.1412,-1.8982 z"
   clip-path="url(#SVGID_6_)"
   id="path63" />
		</g>
		<g
   id="g75">
			<defs
   id="defs68">
				<path
   id="SVGID_7_"
   d="m 189.0898,155.7617 c 7.7763,0 15.0283,4.1826 18.926,10.9151 1.9201,3.3135 2.9377,7.0987 2.9353,10.9462 0.002,12.0643 -9.8065,21.8636 -21.8613,21.8613 -12.0547,0.002 -21.8636,-9.8066 -21.8612,-21.8613 0,-6.0285 2.4516,-11.4921 6.4116,-15.452 3.9575,-3.9576 9.421,-6.4093 15.4496,-6.4093 z m 7.9941,21.8613 c 0,-1.4078 -0.3711,-2.7892 -1.0702,-3.9959 -1.4269,-2.466 -4.0797,-3.9983 -6.924,-3.9983 -4.4005,-0.005 -7.9918,3.5817 -7.9942,7.9942 0.002,4.4077 3.5865,7.9918 7.9942,7.9942 2.2027,0 4.2018,-0.8978 5.6479,-2.3439 1.4485,-1.4485 2.3463,-3.4477 2.3463,-5.6503 z" />
			</defs>
			<clipPath
   id="SVGID_8_">
				<use
   xlink:href="#SVGID_7_"
   style="overflow:visible"
   id="use70"
   x="0"
   y="0"
   width="100%"
   height="100%" />
			</clipPath>
			<path
   style="fill:#d95140"
   d="m 172.6595,161.1903 c -3.96,3.96 -6.4116,9.4235 -6.4116,15.452 -0.002,12.0547 9.8066,21.8636 21.8613,21.8613 12.0547,0.002 21.8636,-9.797 21.8613,-21.8613 0.002,-3.8474 -1.0151,-7.6326 -2.9353,-10.9462 -3.8977,-6.7324 -11.1497,-10.9151 -18.926,-10.9151 -6.0286,1e-4 -11.4921,2.4517 -15.4497,6.4093 z"
   clip-path="url(#SVGID_8_)"
   id="path73" />
		</g>
		<rect
   x="198.8952"
   y="170.69"
   style="fill:#d95140"
   width="122.6266"
   height="13.8671"
   id="rect77" />
	</g>
	<g
   id="g111">
		<g
   id="g107">
			<path
   style="fill:#56a55c"
   d="m 189.5379,264.6147 0.001,-0.001 c 7.7751,0.001 15.0294,4.1862 18.932,10.9235 1.9177,3.3159 2.9305,7.1011 2.9293,10.9378 0,5.8394 -2.2733,11.3304 -6.4032,15.4604 -4.1288,4.1288 -9.6186,6.4032 -15.458,6.4032 -5.8394,0 -11.3281,-2.2733 -15.458,-6.4032 -4.13,-4.13 -6.4032,-9.6186 -6.4056,-15.4628 0.001,-6.0249 2.454,-11.4897 6.4116,-15.4472 3.9586,-3.9589 9.4233,-6.4117 15.4507,-6.4105 z m 7.993,21.8576 c 0.001,-1.4042 -0.3687,-2.7868 -1.063,-3.9887 -1.4293,-2.4684 -4.0833,-3.9995 -6.9299,-4.0019 -4.4077,0.002 -7.993,3.5877 -7.993,7.993 0,2.1356 0.832,4.1431 2.3427,5.6538 1.5083,1.5083 3.5159,2.3403 5.6503,2.3415 2.1356,0 4.1443,-0.8308 5.6539,-2.3403 1.5094,-1.5095 2.3402,-3.5182 2.339,-5.6574 z"
   id="path81" />
			<path
   style="opacity:0.3;fill:#ffffff"
   d="m 189.5403,264.6153 c 7.7763,0 15.0283,4.1826 18.926,10.9151 1.9201,3.3135 2.9377,7.0987 2.9353,10.9462 0.002,12.0643 -9.8065,21.8636 -21.8613,21.8613 -12.0547,0.002 -21.8636,-9.8065 -21.8612,-21.8613 0,-6.0285 2.4516,-11.492 6.4116,-15.452 3.9575,-3.9577 9.421,-6.4093 15.4496,-6.4093 z m 7.9941,21.8612 c 0,-1.4078 -0.3711,-2.7892 -1.0702,-3.9959 -1.4269,-2.466 -4.0797,-3.9983 -6.924,-3.9983 -4.4005,-0.005 -7.9918,3.5817 -7.9942,7.9941 0.002,4.4077 3.5865,7.9918 7.9942,7.9942 2.2027,0 4.2018,-0.8978 5.6479,-2.3439 1.4485,-1.4484 2.3463,-3.4475 2.3463,-5.6502 z"
   id="path83" />
			<g
   id="g95">
				<defs
   id="defs86">
					<path
   id="SVGID_9_"
   d="m 195.1881,292.1268 c -1.4461,1.4461 -3.4452,2.3439 -5.6479,2.3439 -4.4077,-0.002 -7.9918,-3.5865 -7.9942,-7.9942 0.002,-4.4125 3.5937,-7.9989 7.9942,-7.9941 2.8443,0 5.497,1.5323 6.924,3.9983 0.6991,1.2067 1.0702,2.5881 1.0702,3.9959 0,2.2026 -0.8978,4.2017 -2.3463,5.6502 z" />
				</defs>
				<clipPath
   id="SVGID_10_">
					<use
   xlink:href="#SVGID_9_"
   style="overflow:visible"
   id="use88"
   x="0"
   y="0"
   width="100%"
   height="100%" />
				</clipPath>
				<path
   style="fill:#ffffff"
   d="m 190.5209,279.463 c -4.4005,-0.005 -7.9918,3.5817 -7.9942,7.9941 0.001,1.9547 0.7088,3.7452 1.8782,5.1354 -1.7446,-1.4674 -2.8575,-3.6631 -2.8588,-6.1161 0.002,-4.4125 3.5936,-7.999 7.9942,-7.9941 2.3802,-1e-4 4.616,1.0833 6.1218,2.8788 -1.4231,-1.1971 -3.2342,-1.8981 -5.1412,-1.8981 z"
   clip-path="url(#SVGID_10_)"
   id="path91" />
				<path
   style="opacity:0.13;fill:#020202"
   d="m 190.5209,279.463 c -4.4005,-0.005 -7.9918,3.5817 -7.9942,7.9941 0.001,1.9547 0.7088,3.7452 1.8782,5.1354 -1.7446,-1.4674 -2.8575,-3.6631 -2.8588,-6.1161 0.002,-4.4125 3.5936,-7.999 7.9942,-7.9941 2.3802,-1e-4 4.616,1.0833 6.1218,2.8788 -1.4231,-1.1971 -3.2342,-1.8981 -5.1412,-1.8981 z"
   clip-path="url(#SVGID_10_)"
   id="path93" />
			</g>
			<g
   id="g105">
				<defs
   id="defs98">
					<path
   id="SVGID_11_"
   d="m 189.5403,264.6153 c 7.7763,0 15.0283,4.1826 18.926,10.9151 1.9201,3.3135 2.9377,7.0987 2.9353,10.9462 0.002,12.0643 -9.8065,21.8636 -21.8613,21.8613 -12.0547,0.002 -21.8636,-9.8065 -21.8612,-21.8613 0,-6.0285 2.4516,-11.492 6.4116,-15.452 3.9575,-3.9577 9.421,-6.4093 15.4496,-6.4093 z m 7.9941,21.8612 c 0,-1.4078 -0.3711,-2.7892 -1.0702,-3.9959 -1.4269,-2.466 -4.0797,-3.9983 -6.924,-3.9983 -4.4005,-0.005 -7.9918,3.5817 -7.9942,7.9941 0.002,4.4077 3.5865,7.9918 7.9942,7.9942 2.2027,0 4.2018,-0.8978 5.6479,-2.3439 1.4485,-1.4484 2.3463,-3.4475 2.3463,-5.6502 z" />
				</defs>
				<clipPath
   id="SVGID_12_">
					<use
   xlink:href="#SVGID_11_"
   style="overflow:visible"
   id="use100"
   x="0"
   y="0"
   width="100%"
   height="100%" />
				</clipPath>
				<path
   style="fill:#56a55c"
   d="m 173.11,270.0439 c -3.96,3.96 -6.4116,9.4235 -6.4116,15.452 -0.002,12.0547 9.8066,21.8636 21.8613,21.8613 12.0547,0.002 21.8636,-9.797 21.8613,-21.8613 0.002,-3.8474 -1.0151,-7.6326 -2.9353,-10.9462 -3.8977,-6.7325 -11.1497,-10.9151 -18.926,-10.9151 -6.0286,0 -11.4921,2.4517 -15.4497,6.4093 z"
   clip-path="url(#SVGID_12_)"
   id="path103" />
			</g>
		</g>
		<rect
   x="199.3456"
   y="279.54361"
   style="fill:#56a55c"
   width="122.6266"
   height="13.8671"
   id="rect109" />
	</g>
	<g
   id="g143">
		<g
   id="g139">
			<path
   style="fill:#f1bc42"
   d="m 189.0874,318.7208 0.001,-10e-4 c 7.7751,10e-4 15.0295,4.1862 18.932,10.9234 1.9177,3.3159 2.9305,7.1011 2.9293,10.9378 0,5.8394 -2.2733,11.3305 -6.4032,15.4604 -4.1288,4.1288 -9.6186,6.4032 -15.458,6.4032 -5.8394,0 -11.328,-2.2733 -15.458,-6.4032 -4.13,-4.1299 -6.4032,-9.6186 -6.4056,-15.4628 0.001,-6.025 2.454,-11.4897 6.4116,-15.4472 3.9586,-3.9588 9.4234,-6.4116 15.4507,-6.4104 z m 7.993,21.8576 c 0.001,-1.4042 -0.3687,-2.7868 -1.063,-3.9887 -1.4293,-2.4684 -4.0833,-3.9995 -6.9299,-4.0019 -4.4077,0.002 -7.993,3.5877 -7.993,7.993 0,2.1356 0.832,4.1431 2.3427,5.6539 1.5083,1.5083 3.5159,2.3403 5.6503,2.3415 2.1356,0 4.1443,-0.8308 5.6539,-2.3403 1.5096,-1.5095 2.3402,-3.5183 2.339,-5.6575 z"
   id="path113" />
			<path
   style="opacity:0.3;fill:#ffffff"
   d="m 189.0898,318.7214 c 7.7763,0 15.0283,4.1826 18.926,10.915 1.9201,3.3136 2.9377,7.0988 2.9353,10.9462 0.002,12.0643 -9.8065,21.8636 -21.8613,21.8612 -12.0547,0.002 -21.8636,-9.8065 -21.8612,-21.8612 0,-6.0285 2.4516,-11.4921 6.4116,-15.452 3.9575,-3.9576 9.421,-6.4092 15.4496,-6.4092 z m 7.9941,21.8612 c 0,-1.4078 -0.3711,-2.7892 -1.0702,-3.9959 -1.4269,-2.466 -4.0797,-3.9983 -6.924,-3.9983 -4.4005,-0.005 -7.9918,3.5817 -7.9942,7.9942 0.002,4.4077 3.5865,7.9918 7.9942,7.9942 2.2027,0 4.2018,-0.8978 5.6479,-2.3439 1.4485,-1.4485 2.3463,-3.4476 2.3463,-5.6503 z"
   id="path115" />
			<g
   id="g127">
				<defs
   id="defs118">
					<path
   id="SVGID_13_"
   d="m 194.7376,346.2329 c -1.4461,1.4461 -3.4452,2.3439 -5.6479,2.3439 -4.4077,-0.002 -7.9918,-3.5865 -7.9942,-7.9942 0.002,-4.4125 3.5937,-7.999 7.9942,-7.9942 2.8443,0 5.497,1.5323 6.924,3.9983 0.6991,1.2067 1.0702,2.5881 1.0702,3.9959 0,2.2027 -0.8978,4.2018 -2.3463,5.6503 z" />
				</defs>
				<clipPath
   id="SVGID_14_">
					<use
   xlink:href="#SVGID_13_"
   style="overflow:visible"
   id="use120"
   x="0"
   y="0"
   width="100%"
   height="100%" />
				</clipPath>
				<path
   style="fill:#ffffff"
   d="m 190.0704,333.5691 c -4.4005,-0.005 -7.9918,3.5817 -7.9942,7.9942 0.001,1.9547 0.7088,3.7452 1.8782,5.1354 -1.7447,-1.4674 -2.8575,-3.6631 -2.8588,-6.1161 0.002,-4.4125 3.5936,-7.999 7.9942,-7.9942 2.3802,-10e-5 4.616,1.0834 6.1218,2.8788 -1.4231,-1.1971 -3.2342,-1.8981 -5.1412,-1.8981 z"
   clip-path="url(#SVGID_14_)"
   id="path123" />
				<path
   style="opacity:0.13;fill:#020202"
   d="m 190.0704,333.5691 c -4.4005,-0.005 -7.9918,3.5817 -7.9942,7.9942 0.001,1.9547 0.7088,3.7452 1.8782,5.1354 -1.7447,-1.4674 -2.8575,-3.6631 -2.8588,-6.1161 0.002,-4.4125 3.5936,-7.999 7.9942,-7.9942 2.3802,-10e-5 4.616,1.0834 6.1218,2.8788 -1.4231,-1.1971 -3.2342,-1.8981 -5.1412,-1.8981 z"
   clip-path="url(#SVGID_14_)"
   id="path125" />
			</g>
			<g
   id="g137">
				<defs
   id="defs130">
					<path
   id="SVGID_15_"
   d="m 189.0898,318.7214 c 7.7763,0 15.0283,4.1826 18.926,10.915 1.9201,3.3136 2.9377,7.0988 2.9353,10.9462 0.002,12.0643 -9.8065,21.8636 -21.8613,21.8612 -12.0547,0.002 -21.8636,-9.8065 -21.8612,-21.8612 0,-6.0285 2.4516,-11.4921 6.4116,-15.452 3.9575,-3.9576 9.421,-6.4092 15.4496,-6.4092 z m 7.9941,21.8612 c 0,-1.4078 -0.3711,-2.7892 -1.0702,-3.9959 -1.4269,-2.466 -4.0797,-3.9983 -6.924,-3.9983 -4.4005,-0.005 -7.9918,3.5817 -7.9942,7.9942 0.002,4.4077 3.5865,7.9918 7.9942,7.9942 2.2027,0 4.2018,-0.8978 5.6479,-2.3439 1.4485,-1.4485 2.3463,-3.4476 2.3463,-5.6503 z" />
				</defs>
				<clipPath
   id="SVGID_16_">
					<use
   xlink:href="#SVGID_15_"
   style="overflow:visible"
   id="use132"
   x="0"
   y="0"
   width="100%"
   height="100%" />
				</clipPath>
				<path
   style="fill:#f1bc42"
   d="m 172.6595,324.15 c -3.96,3.96 -6.4116,9.4235 -6.4116,15.452 -0.002,12.0547 9.8066,21.8636 21.8613,21.8612 12.0547,0.002 21.8636,-9.797 21.8613,-21.8612 0.002,-3.8474 -1.0151,-7.6327 -2.9353,-10.9462 -3.8977,-6.7324 -11.1497,-10.9151 -18.926,-10.9151 -6.0286,0 -11.4921,2.4517 -15.4497,6.4093 z"
   clip-path="url(#SVGID_16_)"
   id="path135" />
			</g>
		</g>
		<rect
   x="198.8952"
   y="333.64969"
   style="fill:#f1bc42"
   width="122.6266"
   height="13.8671"
   id="rect141" />
	</g>
</g>
</svg>
